<svg id="Layer_1" data-name="Layer 1" xmlns="http://www.w3.org/2000/svg" viewBox="0 0 297.2 334.3"><defs><style>.cls-1{fill:#e9686a;}.cls-2{opacity:0.25;}.cls-3{fill:#ee927e;}.cls-4{fill:#8f278e;}.cls-5{fill:#60195f;}.cls-6{fill:#002539;}.cls-7{fill:#3b6bb4;}.cls-8{fill:#283996;}.cls-9{fill:#fff;}.cls-10{fill:#ee4042;}.cls-11{fill:#cf3638;}.cls-12{fill:#f6c09c;}.cls-13{fill:#ffca3e;}.cls-14{fill:#faa63d;}.cls-15{fill:#f2634a;}</style></defs><title>main_alive</title><path class="cls-1" d="M168.29,169.47l7.36-7.36a5.87,5.87,0,0,0,0-8.3h0a5.87,5.87,0,0,0-8.3,0L160,161.17l-7.36-7.36a5.88,5.88,0,0,0-8.31,0h0a5.87,5.87,0,0,0,0,8.3l7.36,7.36-7.36,7.36a5.88,5.88,0,1,0,8.31,8.31l7.36-7.36,7.36,7.36a5.87,5.87,0,1,0,8.3-8.31Z" transform="translate(-61.08 -44.1)"/><path class="cls-1" d="M183.31,210.36l7.36-7.36a5.87,5.87,0,0,0,0-8.3h0a5.88,5.88,0,0,0-8.31,0L175,202.06l-7.36-7.36a5.87,5.87,0,0,0-8.3,0h0a5.87,5.87,0,0,0,0,8.3l7.36,7.36-7.36,7.37a5.87,5.87,0,0,0,8.3,8.3l7.36-7.36,7.36,7.36a5.87,5.87,0,0,0,8.31-8.3Z" transform="translate(-61.08 -44.1)"/><path class="cls-2" d="M67.74,378.4H321.63a6.67,6.67,0,0,0,6.67-6.67h0a6.67,6.67,0,0,0-6.67-6.67H67.74a6.67,6.67,0,0,0-6.66,6.67h0A6.66,6.66,0,0,0,67.74,378.4Z" transform="translate(-61.08 -44.1)"/><path class="cls-3" d="M165.83,344.31H136.14A16.27,16.27,0,0,1,119.87,328V278.32A31.11,31.11,0,0,1,151,247.21h0a31.11,31.11,0,0,1,31.11,31.11V328A16.26,16.26,0,0,1,165.83,344.31Z" transform="translate(-61.08 -44.1)"/><path class="cls-3" d="M129.77,317.91a9.9,9.9,0,1,1-9.9-9.9A9.9,9.9,0,0,1,129.77,317.91Z" transform="translate(-61.08 -44.1)"/><rect class="cls-4" x="93.36" y="265.15" width="42.48" height="61.74"/><rect class="cls-5" x="93.36" y="269.79" width="42.48" height="29.64"/><path class="cls-6" d="M168.26,348.27A22.72,22.72,0,0,0,145.54,371H191A22.72,22.72,0,0,0,168.26,348.27Z" transform="translate(-61.08 -44.1)"/><path class="cls-7" d="M92.8,180.37h99.06a7.94,7.94,0,0,1,7.94,7.94v70.12a0,0,0,0,1,0,0H84.86a0,0,0,0,1,0,0V188.31A7.94,7.94,0,0,1,92.8,180.37Z"/><path class="cls-8" d="M224.31,224.46h-41.8a36.57,36.57,0,0,0-35.35,27.19h64.08a11.86,11.86,0,0,1,11.85,11.86h0a11.85,11.85,0,0,1-11.85,11.85H145.93v27.17h115V261A36.57,36.57,0,0,0,224.31,224.46Z" transform="translate(-61.08 -44.1)"/><path class="cls-4" d="M79.85,249.54h124a0,0,0,0,1,0,0V282.7a2.9,2.9,0,0,1-2.9,2.9H82.75a2.9,2.9,0,0,1-2.9-2.9V249.54A0,0,0,0,1,79.85,249.54Z"/><rect class="cls-5" x="79.85" y="249.54" width="123.98" height="15.31"/><rect class="cls-4" x="71.95" y="238.18" width="139.79" height="18.88" rx="0.89"/><rect class="cls-4" x="151.15" y="265.15" width="42.48" height="61.74"/><path class="cls-6" d="M226.05,348.27A22.72,22.72,0,0,0,203.33,371h45.45A22.73,22.73,0,0,0,226.05,348.27Z" transform="translate(-61.08 -44.1)"/><rect class="cls-4" x="129.41" y="188.79" width="19.26" height="58.78"/><rect class="cls-5" x="129.41" y="188.79" width="19.26" height="25.19"/><path class="cls-9" d="M205.31,290.43a5.19,5.19,0,1,1-5.19-5.19A5.19,5.19,0,0,1,205.31,290.43Z" transform="translate(-61.08 -44.1)"/><rect class="cls-4" x="90.89" y="188.79" width="19.26" height="58.78"/><rect class="cls-5" x="90.89" y="188.79" width="19.26" height="25.19"/><path class="cls-9" d="M166.78,290.43a5.19,5.19,0,1,1-5.19-5.19A5.19,5.19,0,0,1,166.78,290.43Z" transform="translate(-61.08 -44.1)"/><path class="cls-6" d="M179.05,200a6.94,6.94,0,1,1-6.94-6.94A6.94,6.94,0,0,1,179.05,200Z" transform="translate(-61.08 -44.1)"/><path class="cls-10" d="M30.35,0H218.3a12,12,0,0,1,12,12V94.41a0,0,0,0,1,0,0h-212a0,0,0,0,1,0,0V12A12,12,0,0,1,30.35,0Z"/><path class="cls-11" d="M236,44.1H149.29a55.46,55.46,0,0,1,55.46,55.46v38.95h86.67V99.56A55.46,55.46,0,0,0,236,44.1Z" transform="translate(-61.08 -44.1)"/><path class="cls-3" d="M80.22,188.06H95.7v23.49H80.22A11.75,11.75,0,0,1,68.47,199.8h0A11.75,11.75,0,0,1,80.22,188.06Z" transform="translate(-61.08 -44.1)"/><rect class="cls-6" x="17.54" y="123.68" width="73.67" height="62.46"/><path class="cls-3" d="M28.15,99.65H219.79a0,0,0,0,1,0,0v89.87a8.35,8.35,0,0,1-8.35,8.35H36.5a8.35,8.35,0,0,1-8.35-8.35V99.65a0,0,0,0,1,0,0Z"/><path class="cls-12" d="M212.07,199.72h0a23,23,0,0,0-23-23H89.23v26.86a38.3,38.3,0,0,0,5.15,19.22H189A23,23,0,0,0,212.07,199.72Z" transform="translate(-61.08 -44.1)"/><rect class="cls-13" x="13.2" y="85.24" width="221.53" height="17.62"/><rect class="cls-14" x="130.71" y="85.24" width="104.03" height="17.62"/><path class="cls-10" d="M75.14,167.88H347a11.27,11.27,0,0,0,11.27-11.26h0A11.28,11.28,0,0,0,347,145.35H75.14a11.27,11.27,0,0,0-11.27,11.27h0A11.26,11.26,0,0,0,75.14,167.88Z" transform="translate(-61.08 -44.1)"/><path class="cls-11" d="M205.86,156.62a11.27,11.27,0,0,0-11.26-11.27H347a11.27,11.27,0,1,1,0,22.53H194.6A11.26,11.26,0,0,0,205.86,156.62Z" transform="translate(-61.08 -44.1)"/><path class="cls-6" d="M117.05,199.71a6.94,6.94,0,1,1-6.94-6.94A6.94,6.94,0,0,1,117.05,199.71Z" transform="translate(-61.08 -44.1)"/><rect class="cls-6" x="156.86" y="123.68" width="73.67" height="62.46"/><rect x="156.86" y="123.68" width="73.67" height="9.2"/><path class="cls-12" d="M255.31,211.46H239.83V188h15.48a11.74,11.74,0,0,1,11.74,11.74h0A11.75,11.75,0,0,1,255.31,211.46Z" transform="translate(-61.08 -44.1)"/><path class="cls-6" d="M50.91,41.79h58.62A3.19,3.19,0,0,1,112.72,45V74.29a0,0,0,0,1,0,0h-65a0,0,0,0,1,0,0V45A3.19,3.19,0,0,1,50.91,41.79Z"/><path class="cls-12" d="M284.87,344.31H255.18A16.26,16.26,0,0,1,238.92,328V278.32A31.1,31.1,0,0,1,270,247.21h0a31.11,31.11,0,0,1,31.11,31.11V328A16.26,16.26,0,0,1,284.87,344.31Z" transform="translate(-61.08 -44.1)"/><path class="cls-12" d="M248.81,317.91a9.9,9.9,0,1,1-9.89-9.9A9.89,9.89,0,0,1,248.81,317.91Z" transform="translate(-61.08 -44.1)"/><path class="cls-3" d="M286.31,309.94H268a5.93,5.93,0,0,1-5.93-5.93h0a5.94,5.94,0,0,1,5.93-5.93h18.27a5.93,5.93,0,0,1,5.93,5.93h0A5.92,5.92,0,0,1,286.31,309.94Z" transform="translate(-61.08 -44.1)"/><path class="cls-3" d="M286.31,291.66H268a5.93,5.93,0,0,1-5.93-5.92h0a5.93,5.93,0,0,1,5.93-5.93h18.27a5.92,5.92,0,0,1,5.93,5.93h0A5.92,5.92,0,0,1,286.31,291.66Z" transform="translate(-61.08 -44.1)"/><polygon class="cls-6" points="73.07 91.91 49.26 68.1 73.07 68.1 73.07 91.91"/><polygon class="cls-6" points="98.08 99.05 67.12 68.1 98.08 68.1 98.08 99.05"/><rect class="cls-4" x="243.12" y="85.37" width="17.54" height="50.56" transform="translate(301.46 -185.34) rotate(90)"/><path class="cls-15" d="M145.72,71.89h-21.9a6.57,6.57,0,0,1-6.57-6.57h0a6.57,6.57,0,0,1,6.57-6.57h21.9a6.57,6.57,0,0,1,6.56,6.57h0A6.57,6.57,0,0,1,145.72,71.89Z" transform="translate(-61.08 -44.1)"/><path class="cls-6" d="M182.05,199.71a6.94,6.94,0,1,1-6.94-6.94A6.94,6.94,0,0,1,182.05,199.71Z" transform="translate(-61.08 -44.1)"/></svg>